<svg width="33" height="28" viewBox="0 0 33 28" fill="none" xmlns="http://www.w3.org/2000/svg">
<path d="M1.42001 12.7254C2.25839 9.33649 4.20004 6.32701 6.93581 4.17631C9.6716 2.02557 13.0442 0.857178 16.5166 0.857178C19.989 0.857178 23.3616 2.02557 26.0974 4.17631C28.8332 6.32701 30.7748 9.33649 31.6132 12.7254H30.2496C27.9492 12.6913 25.696 13.3828 23.8064 14.7025C23.6973 14.782 23.5834 14.8545 23.4655 14.9197H23.3064C23.1884 14.8545 23.0746 14.782 22.9655 14.7025C21.0591 13.4133 18.8139 12.7247 16.5166 12.7247C14.2193 12.7247 11.9741 13.4133 10.0677 14.7025C9.95865 14.782 9.84478 14.8545 9.72683 14.9197H9.56774C9.44978 14.8545 9.33592 14.782 9.22683 14.7025C7.33717 13.3828 5.08399 12.6913 2.78365 12.7254H1.42001ZM27.795 19.8911C28.495 19.3429 29.3626 19.056 30.2496 19.0797H32.0791V15.4111H30.2496C28.6873 15.3921 27.1608 15.8812 25.8973 16.8054C25.1863 17.3326 24.3261 17.6171 23.4427 17.6171C22.5593 17.6171 21.6992 17.3326 20.9882 16.8054C19.6926 15.8984 18.1519 15.4121 16.5734 15.4121C14.9949 15.4121 13.4542 15.8984 12.1586 16.8054C11.4476 17.3326 10.5875 17.6171 9.7041 17.6171C8.82069 17.6171 7.96058 17.3326 7.24956 16.8054C5.97047 15.8693 4.42206 15.3797 2.84046 15.4111H0.954102V19.0797H2.78365C3.67059 19.056 4.53819 19.3429 5.23819 19.8911C6.53137 20.7988 8.07035 21.2854 9.64728 21.2854C11.2242 21.2854 12.7632 20.7988 14.0564 19.8911C14.7573 19.3446 15.6242 19.058 16.5109 19.0797C17.3982 19.0541 18.2664 19.3412 18.9655 19.8911C20.261 20.7982 21.8017 21.2844 23.3802 21.2844C24.9588 21.2844 26.4994 20.7982 27.795 19.8911ZM27.795 26.4511C28.495 25.9029 29.3626 25.616 30.2496 25.6397H32.0791V21.9711H30.2496C28.6873 21.9521 27.1608 22.4412 25.8973 23.3654C25.1863 23.8926 24.3261 24.1771 23.4427 24.1771C22.5593 24.1771 21.6992 23.8926 20.9882 23.3654C19.6926 22.4584 18.1519 21.9723 16.5734 21.9723C14.9949 21.9723 13.4542 22.4584 12.1586 23.3654C11.4476 23.8926 10.5875 24.1771 9.7041 24.1771C8.82069 24.1771 7.96058 23.8926 7.24956 23.3654C5.97047 22.4294 4.42206 21.9397 2.84046 21.9711H0.954102V25.6397H2.78365C3.67059 25.616 4.53819 25.9029 5.23819 26.4511C6.53137 27.3588 8.07035 27.8454 9.64728 27.8454C11.2242 27.8454 12.7632 27.3588 14.0564 26.4511C14.7573 25.9046 15.6242 25.618 16.5109 25.6397C17.3982 25.6141 18.2664 25.9012 18.9655 26.4511C20.261 27.3582 21.8017 27.8444 23.3802 27.8444C24.9588 27.8444 26.4994 27.3582 27.795 26.4511Z" fill="#4B5567"/>
</svg>
