<svg width="22" height="32" viewBox="0 0 22 32" fill="none" xmlns="http://www.w3.org/2000/svg">
<path d="M10.03 20.1027V28.1194C10.03 28.4268 9.90717 28.7215 9.68852 28.9387C9.46998 29.156 9.17346 29.2781 8.86422 29.2781C8.55509 29.2781 8.25857 29.156 8.03992 28.9387C7.82127 28.7215 7.69844 28.4268 7.69844 28.1194V20.1137C8.02308 20.3494 8.41219 20.4809 8.81402 20.4907C9.252 20.5032 9.68116 20.3662 10.03 20.1027ZM19.9586 17.7852C19.6628 17.7852 19.379 17.9021 19.1698 18.11C18.9606 18.3179 18.8431 18.6 18.8431 18.894V20.2912C18.8431 20.5985 18.9659 20.8932 19.1845 21.1105C19.4031 21.3278 19.6996 21.4499 20.0088 21.4499C20.3181 21.4499 20.6146 21.3278 20.8331 21.1105C21.0518 20.8932 21.1746 20.5985 21.1746 20.2912V18.9495C21.1833 18.7905 21.1574 18.6315 21.0987 18.4833C21.0401 18.3352 20.95 18.2013 20.8346 18.0908C20.7192 17.9804 20.5812 17.8959 20.4302 17.8431C20.279 17.7904 20.1182 17.7707 19.9586 17.7852ZM5.16608 23.1408C4.76467 23.1288 4.37607 22.9976 4.05051 22.7638V30.8027C4.05051 31.1115 4.17391 31.4077 4.39359 31.626C4.61326 31.8443 4.9112 31.967 5.22186 31.967C5.53253 31.967 5.83047 31.8443 6.05013 31.626C6.26981 31.4077 6.39322 31.1115 6.39322 30.8027V22.8193C6.02893 23.0533 5.59911 23.166 5.16608 23.1408ZM16.3218 15.3791C16.1707 15.3716 16.0196 15.3947 15.8777 15.4471C15.7359 15.4994 15.6063 15.5799 15.4967 15.6836C15.3871 15.7874 15.3 15.9121 15.2404 16.0504C15.1809 16.1887 15.1503 16.3376 15.1505 16.4879V22.664C15.1505 22.9728 15.2739 23.269 15.4935 23.4873C15.7133 23.7056 16.0112 23.8283 16.3218 23.8283C16.6325 23.8283 16.9305 23.7056 17.1502 23.4873C17.3698 23.269 17.4932 22.9728 17.4932 22.664V16.5655C17.5021 16.4055 17.476 16.2455 17.4167 16.0965C17.3573 15.9475 17.2663 15.813 17.1496 15.7023C17.0329 15.5917 16.8936 15.5074 16.7411 15.4555C16.5886 15.4035 16.4265 15.385 16.2661 15.4013L16.3218 15.3791ZM12.6181 17.752C12.1979 17.7491 11.7889 17.6175 11.4468 17.375V25.4361C11.4468 25.7449 11.5702 26.041 11.7898 26.2594C12.0096 26.4777 12.3074 26.6003 12.6181 26.6003C12.9288 26.6003 13.2267 26.4777 13.4464 26.2594C13.6661 26.041 13.7895 25.7449 13.7895 25.4361V17.3861C13.4356 17.6481 13.0036 17.7847 12.5624 17.7741L12.6181 17.752ZM2.63373 23.9281V1.40803C2.63079 1.13352 2.51901 0.871263 2.32267 0.678185C2.12633 0.485107 1.86128 0.37682 1.58508 0.376831H1.33966C1.06346 0.37682 0.798413 0.485107 0.602072 0.678185C0.40573 0.871263 0.29395 1.13352 0.291016 1.40803V23.9281C0.291016 24.2045 0.401502 24.4696 0.598156 24.6651C0.79481 24.8606 1.06154 24.9704 1.33966 24.9704H1.58508C1.86321 24.9704 2.12993 24.8606 2.32659 24.6651C2.52325 24.4696 2.63373 24.2045 2.63373 23.9281ZM5.2888 22.287H5.04337C4.76526 22.287 4.49852 22.1772 4.30187 21.9818C4.10522 21.7863 3.99473 21.5212 3.99473 21.2447V4.09136C3.99767 3.81686 4.10944 3.55459 4.30579 3.36152C4.50213 3.16844 4.76718 3.06015 5.04337 3.06016H5.2888C5.56499 3.06015 5.83004 3.16844 6.02638 3.36152C6.22272 3.55459 6.33451 3.81686 6.33744 4.09136V21.2669C6.33744 21.5433 6.22695 21.8085 6.0303 22.0039C5.83365 22.1994 5.56691 22.3092 5.2888 22.3092V22.287ZM8.98136 19.648H8.72477C8.44967 19.648 8.18573 19.5394 7.99117 19.346C7.79661 19.1526 7.68729 18.8904 7.68729 18.6168V6.75252C7.68584 6.61617 7.71161 6.48088 7.76303 6.35449C7.81446 6.22809 7.89066 6.11311 7.98715 6.01618C8.08365 5.91925 8.19856 5.84229 8.32517 5.78978C8.45179 5.73727 8.58756 5.71022 8.72477 5.71023H8.98136C9.25757 5.71316 9.52141 5.82425 9.71563 6.0194C9.90996 6.21456 10.0188 6.478 10.0188 6.75252V18.6168C10.0188 18.8904 9.90952 19.1526 9.71496 19.346C9.5204 19.5394 9.25657 19.648 8.98136 19.648ZM12.6739 16.9314H12.4396C12.1634 16.9314 11.8984 16.8232 11.702 16.6301C11.5057 16.437 11.3939 16.1748 11.391 15.9002V9.51347C11.3819 9.3711 11.4022 9.22839 11.4508 9.09412C11.4993 8.95995 11.5752 8.83698 11.6735 8.73309C11.7717 8.62908 11.8904 8.54636 12.0223 8.48981C12.1541 8.43337 12.2961 8.40432 12.4396 8.40465H12.6851C12.9632 8.40465 13.2299 8.51443 13.4266 8.70991C13.6233 8.9054 13.7337 9.17051 13.7337 9.44694V15.8781C13.7352 16.0159 13.7092 16.1526 13.6571 16.2803C13.6051 16.4081 13.5281 16.5243 13.4305 16.6223C13.333 16.7202 13.217 16.7979 13.0889 16.8511C12.961 16.9042 12.8237 16.9314 12.6851 16.9314H12.6739ZM16.3776 14.5475H16.1322C15.8541 14.5475 15.5874 14.4377 15.3907 14.2422C15.194 14.0468 15.0836 13.7816 15.0836 13.5052V11.8531C15.0865 11.5785 15.1982 11.3163 15.3946 11.1232C15.5909 10.9301 15.856 10.8219 16.1322 10.8219H16.3776C16.6538 10.8219 16.9189 10.9301 17.1152 11.1232C17.3116 11.3163 17.4234 11.5785 17.4263 11.8531V13.5052C17.4263 13.7797 17.3174 14.0432 17.1231 14.2384C16.9288 14.4335 16.665 14.5446 16.3888 14.5475H16.3776Z" fill="white"/>
</svg>
