<svg width="34" height="26" viewBox="0 0 34 26" fill="none" xmlns="http://www.w3.org/2000/svg">
<path d="M10.1099 23.5089C7.22006 26.3812 2.32576 26.3698 0.958919 22.5416C0.69131 21.7921 0.477347 21.0214 0.319978 20.2351C-0.322557 17.0244 0.0072152 13.6965 1.2676 10.672C2.52797 7.6477 4.66235 5.06271 7.40082 3.24401C10.1393 1.42532 13.3589 0.45459 16.6524 0.45459C19.9459 0.45459 23.1655 1.42532 25.9039 3.24401C28.6425 5.06271 30.7768 7.6477 32.0372 10.6721C33.2976 13.6965 33.6273 17.0244 32.9848 20.2351C32.8275 21.0214 32.6135 21.7921 32.3458 22.5416C30.979 26.3698 26.0847 26.3812 23.1948 23.5089L18.7339 19.075C18.3077 18.6514 18.3518 17.9528 18.4694 17.3652C18.5408 17.0081 18.5041 16.6379 18.3639 16.3014C18.2236 15.9649 17.9863 15.6773 17.6816 15.4751C17.377 15.2728 17.0188 15.1648 16.6524 15.1648C16.286 15.1648 15.9279 15.2728 15.6232 15.4751C15.3185 15.6773 15.0811 15.9649 14.9409 16.3014C14.8006 16.6379 14.764 17.0081 14.8355 17.3652C14.9531 17.9528 14.997 18.6514 14.5708 19.075L10.1099 23.5089Z" fill="#728095"/>
</svg>
