<svg width="19" height="39" viewBox="0 0 19 39" fill="none" xmlns="http://www.w3.org/2000/svg">
<path d="M18.4392 0.909058C16.037 0.909058 13.6582 1.39115 11.4388 2.32766C9.21945 3.26427 7.20297 4.63697 5.50425 6.36749C3.80565 8.09811 2.45826 10.1525 1.53892 12.4136C0.61969 14.6746 0.146484 17.0981 0.146484 19.5454C0.146484 21.9927 0.61969 24.4162 1.53892 26.6773C2.45826 28.9384 3.80565 30.9927 5.50425 32.7233C7.20297 34.4539 9.81736 35.427 12.0367 36.3636C14.2561 37.3001 16.037 38.1818 18.4392 38.1818V29.7306C17.238 29.7306 15.8903 29.1047 14.7806 28.6363C13.6709 28.1681 12.821 26.9996 11.9717 26.1344C11.1224 25.2691 10.4487 24.2419 9.9891 23.1114C9.52938 21.9808 9.29283 21.2237 9.29283 20C9.29283 18.7762 9.52938 17.11 9.9891 15.9795C10.4487 14.849 11.1224 13.8217 11.9717 12.9565C12.821 12.0912 13.8293 11.4048 14.939 10.9366C16.0487 10.4682 17.238 10.2272 18.4392 10.2272V0.909058Z" fill="white"/>
</svg>
