<svg width="34" height="34" viewBox="0 0 34 34" fill="none" xmlns="http://www.w3.org/2000/svg">
<path d="M31.662 10.4921C31.0427 9.08443 30.223 7.77262 29.2279 6.5969C27.7571 4.80699 25.9216 3.34697 23.8421 2.31295C21.7626 1.27894 19.4864 0.694364 17.1633 0.597698C14.8402 0.501033 12.5228 0.894468 10.3636 1.75213C8.20451 2.60978 6.2526 3.9122 4.63639 5.57367C3.02017 7.23512 1.77628 9.21797 0.986596 11.3917C0.19691 13.5654 -0.12068 15.8807 0.0547464 18.1851C0.230185 20.4897 0.894635 22.7311 2.00439 24.7619C3.11415 26.7928 4.64405 28.5671 6.49339 29.9679C7.68001 30.8847 8.99121 31.63 10.3879 32.1816C12.3462 32.9792 14.4421 33.39 16.5584 33.3913C20.9269 33.3817 25.1133 31.6509 28.2001 28.5783C31.2868 25.5057 33.022 21.3421 33.0251 17.0001C33.0283 14.7604 32.5642 12.5444 31.662 10.4921ZM16.5462 3.9235C18.4468 3.92331 20.3243 4.33617 22.0473 5.13318C21.6272 5.31363 21.1854 5.43966 20.7329 5.50819C19.244 5.72241 17.8647 6.40948 16.8008 7.46686C15.737 8.52423 15.0457 9.89521 14.8302 11.3751C14.7356 12.2051 14.3558 12.9772 13.7549 13.5613C13.1541 14.1453 12.3689 14.5053 11.532 14.5808C10.043 14.795 8.66371 15.4821 7.59989 16.5395C6.53608 17.5969 5.84481 18.9678 5.62928 20.4477C5.5563 21.2369 5.21754 21.9785 4.66781 22.5525C3.71929 20.5606 3.2932 18.3623 3.42917 16.1627C3.56514 13.963 4.25875 11.8332 5.44547 9.97154C6.63217 8.10995 8.27341 6.57695 10.2165 5.51525C12.1595 4.45356 14.3412 3.89767 16.5584 3.89931L16.5462 3.9235ZM6.48122 25.4679C6.62726 25.3348 6.77331 25.2138 6.91935 25.0687C8.00211 24.0253 8.69712 22.648 8.89098 21.1614C8.96958 20.3258 9.34493 19.5453 9.94981 18.9598C10.5319 18.3576 11.3153 17.9876 12.1527 17.9195C13.6416 17.7052 15.0209 17.0181 16.0847 15.9608C17.1486 14.9034 17.8398 13.5325 18.0554 12.0525C18.1081 11.1786 18.4854 10.3551 19.1142 9.74206C19.7107 9.15156 20.5015 8.795 21.3414 8.73802C22.7093 8.55096 23.985 7.94655 24.9926 7.00819C26.1399 7.95424 27.1118 9.09233 27.8648 10.3711C27.8186 10.4331 27.7655 10.49 27.7066 10.5404C27.1257 11.1479 26.3433 11.5261 25.5037 11.605C24.0132 11.8154 22.6319 12.5013 21.5673 13.5593C20.5029 14.6174 19.8128 15.9904 19.601 17.4719C19.5152 18.3046 19.1425 19.0823 18.5459 19.6731C17.9491 20.2641 17.1654 20.6317 16.3272 20.7138C14.8338 20.9264 13.4494 21.6121 12.3794 22.669C11.3095 23.7261 10.611 25.0978 10.3879 26.5808C10.3225 27.1719 10.1181 27.7396 9.79159 28.238C8.54289 27.5011 7.42454 26.5653 6.48122 25.4679ZM16.5462 30.1372C15.3113 30.1385 14.0822 29.9675 12.8951 29.6292C13.3012 28.8767 13.5652 28.0567 13.674 27.2098C13.7593 26.3789 14.1304 25.6026 14.7246 25.0121C15.3187 24.4215 16.0997 24.0527 16.9357 23.9679C18.4268 23.7561 19.8089 23.07 20.8752 22.0124C21.9413 20.9549 22.6344 19.5825 22.8506 18.1009C22.9359 17.27 23.307 16.4938 23.9011 15.9032C24.4953 15.3126 25.2763 14.9438 26.1123 14.859C27.2344 14.714 28.3039 14.2987 29.2279 13.6493C29.741 15.5823 29.8018 17.6063 29.4056 19.5662C29.0095 21.5261 28.1668 23.3699 26.9424 24.9559C25.7181 26.5418 24.1445 27.8281 22.3423 28.7157C20.5402 29.6034 18.5575 30.069 16.5462 30.0767V30.1372Z" fill="white"/>
</svg>
