<svg width="148" height="15" viewBox="0 0 148 15" fill="none" xmlns="http://www.w3.org/2000/svg">
<path d="M73.6963 14.2879H68.6436V0.861826H73.6963V14.2879ZM69.1371 13.7974H73.2029V1.35226H69.1371V13.7974ZM80.7265 14.2879H75.7756V0.861826H86.1196C87.6015 0.742553 89.0772 1.15606 90.2782 2.02709C90.7952 2.49723 91.1959 3.07974 91.4491 3.72917C91.7023 4.37861 91.8011 5.0774 91.7377 5.77104C91.8115 6.96962 91.4277 8.15178 90.663 9.08144C89.7581 10.1133 88.2522 10.6449 86.1877 10.6636C85.6676 10.6773 81.7706 10.6636 80.7295 10.6636L80.7265 14.2879ZM76.266 13.7974H80.2331V10.1682H80.4808C80.5311 10.1682 85.5907 10.1839 86.1759 10.1682C88.0992 10.1516 89.4818 9.67781 90.29 8.75285C90.9707 7.91172 91.3088 6.84719 91.2374 5.77006C91.2981 5.14855 91.2139 4.52151 90.9915 3.93755C90.7689 3.3536 90.4142 2.82842 89.9545 2.40276C88.8409 1.60836 87.4785 1.23547 86.1127 1.35128H76.269L76.266 13.7974ZM85.0716 7.64742H80.1996V3.99273H85.1042C85.4518 3.94499 85.806 3.98532 86.1337 4.10998C86.4616 4.23464 86.7524 4.4396 86.9792 4.70582C87.1849 5.04612 87.2819 5.44047 87.2574 5.83675C87.2759 6.20467 87.196 6.5709 87.0255 6.89805C86.7916 7.17845 86.4889 7.39431 86.1467 7.52487C85.8045 7.65542 85.4343 7.69627 85.0716 7.6435V7.64742ZM80.693 7.15699H85.0716C85.8808 7.15699 86.3821 6.98927 86.6042 6.644C86.7264 6.39305 86.7818 6.11508 86.765 5.83675C86.7866 5.54452 86.7229 5.2523 86.5815 4.99517L86.5755 4.98635C86.3407 4.64305 85.8739 4.48317 85.1042 4.48317H80.693V7.15699ZM100.743 14.486C96.3117 14.486 93.667 13.3923 92.6594 11.1432C92.4945 10.7088 92.3826 10.2563 92.3259 9.79551L92.2825 9.51302H97.5542L97.5887 9.719C97.6293 9.92812 97.719 10.125 97.8492 10.2938C98.0574 10.5439 98.7522 10.9637 101.057 10.9637C103.829 10.9637 103.828 10.4802 103.828 10.2202C103.828 9.78178 103.508 9.63171 101.248 9.39238L100.819 9.35216C99.968 9.27271 98.8923 9.17168 98.4009 9.12951C94.2561 8.75678 92.4058 7.47675 92.4058 4.98046C92.4058 2.35862 95.5548 0.664673 100.429 0.664673C104.405 0.664673 106.967 1.70635 108.041 3.76321C108.296 4.24166 108.468 4.75976 108.548 5.29532L108.582 5.57094H103.304L103.283 5.34927C103.262 5.17603 103.188 5.01351 103.07 4.88434C102.872 4.62147 102.249 4.18695 100.312 4.18695C97.9351 4.18695 97.6074 4.48905 97.6074 4.8147C97.6074 5.24922 98.3584 5.40321 100.765 5.65922C101.769 5.74063 103.382 5.90541 103.935 5.97211C107.41 6.3468 108.96 7.59544 108.96 10.0221C108.961 12.0574 107.535 14.486 100.743 14.486ZM92.8588 10.0035C92.9082 10.3269 92.9933 10.644 93.1124 10.949C94.0301 12.998 96.5269 13.9956 100.743 13.9956C104.268 13.9956 108.471 13.309 108.471 10.0221C108.471 7.87106 107.099 6.80584 103.883 6.4596C103.33 6.3929 101.727 6.2291 100.725 6.14671C98.1591 5.8701 97.116 5.72297 97.116 4.8147C97.116 3.87503 98.24 3.69652 100.314 3.69652C101.954 3.69652 103.012 3.99077 103.461 4.58419C103.584 4.73039 103.677 4.899 103.734 5.08051H108.011C107.925 4.70116 107.789 4.33475 107.606 3.99077C106.619 2.1085 104.208 1.1551 100.431 1.1551C95.8568 1.1551 92.9012 2.6568 92.9012 4.98046C92.9012 7.19721 94.5601 8.29185 98.4463 8.64104C98.9397 8.68321 100.014 8.78424 100.867 8.86467L101.299 8.90489C103.398 9.1246 104.324 9.26192 104.324 10.2202C104.324 11.2521 103.127 11.4541 101.059 11.4541C99.1469 11.4541 97.939 11.1687 97.4723 10.6067C97.3284 10.4275 97.2198 10.2228 97.1525 10.0035H92.8588ZM118.335 14.4693C113.184 14.4693 110.342 12.3987 110.342 8.63809V0.861826H115.327V8.63809C115.327 9.92793 116.489 10.6675 118.513 10.6675C120.447 10.6675 121.648 9.89556 121.648 8.65477V0.861826H126.582V9.05006C126.587 12.4939 123.578 14.4693 118.332 14.4693H118.335ZM110.835 1.35226V8.63809C110.835 13.2854 115.53 13.9789 118.335 13.9789C121.234 13.9789 126.097 13.3384 126.097 9.05006V1.35226H122.149V8.65477C122.149 10.1751 120.724 11.1579 118.521 11.1579C116.217 11.1579 114.842 10.2163 114.842 8.63809V1.35226H110.835ZM147.491 14.2879H142.786V8.22613L140.118 14.2879H136.013L133.373 8.2379V14.2879H128.651V0.861826H134.862L138.089 8.26439L141.472 0.861826H147.497L147.491 14.2879ZM143.279 13.7974H146.998V1.35226H141.785L138.073 9.47281L134.534 1.35226H129.14V13.7974H132.875V5.87795L136.329 13.8004H139.783L143.274 5.88972L143.279 13.7974ZM4.97357 1.10704H0.479492V14.0426H12.8979V10.5988H4.97357V1.10704ZM21.969 0.812783C16.2325 0.812783 13.2157 3.51506 13.2157 7.48264C13.2157 11.9652 16.3825 14.2388 21.969 14.2388C28.119 14.2388 30.7055 11.6023 30.7055 7.48264C30.7055 3.29927 27.7874 0.810821 21.969 0.810821V0.812783ZM21.9522 4.17419C22.3427 4.17237 22.733 4.19497 23.1206 4.24187L18.0966 9.23544C17.8589 8.70097 17.7429 8.12079 17.7571 7.53659C17.7571 5.50718 18.7854 4.17223 21.9522 4.17223V4.17419ZM21.969 10.9304C21.5927 10.932 21.2167 10.911 20.843 10.8676L25.8759 5.8652C26.1047 6.39084 26.2143 6.96016 26.1966 7.53266C26.1966 9.50714 25.2492 10.9284 21.969 10.9284V10.9304ZM39.6098 9.16482H44.2351C44.167 9.48389 44.0251 9.78276 43.8206 10.0378C42.8617 10.8142 41.6379 11.1921 40.4052 11.0922C39.7846 11.1582 39.1572 11.0908 38.5652 10.8947C37.9732 10.6986 37.4304 10.3782 36.9739 9.95539C36.5062 9.27359 36.2841 8.45477 36.3433 7.63173C36.2676 6.7693 36.5092 5.90887 37.0232 5.20998C37.6696 4.48415 38.764 4.17125 40.3726 4.17125C41.396 4.08703 42.4182 4.34828 43.2739 4.91278C43.5436 5.12571 43.7452 5.41195 43.8542 5.73671H48.144C48.1128 5.20162 47.9833 4.67672 47.7621 4.18793C46.7348 2.11144 44.3466 0.875558 40.2857 0.875558C36.7538 0.875558 34.3834 1.94666 33.0739 3.56214C32.209 4.72873 31.7651 6.15106 31.8137 7.59936C31.7577 9.08046 32.1903 10.5391 33.0453 11.7533C34.339 13.4208 36.6433 14.2408 39.4124 14.2408C41.2533 14.3684 43.0818 13.8559 44.5844 12.7911L44.7009 14.0426H48.2644V6.38015H39.6098V9.16482ZM58.3785 0.80984C52.643 0.80984 49.6252 3.51211 49.6252 7.4797C49.6252 11.9622 52.791 14.2359 58.3785 14.2359C64.5295 14.2359 67.116 11.5993 67.116 7.4797C67.116 3.29927 64.1979 0.810821 58.3785 0.810821V0.80984ZM58.3627 4.17125C58.7429 4.17013 59.1229 4.19175 59.5005 4.23599L54.4963 9.21288C54.2659 8.68429 54.1538 8.11245 54.1676 7.53659C54.1637 5.50718 55.1959 4.17223 58.3627 4.17223V4.17125ZM58.3785 10.9274C57.9923 10.9291 57.6063 10.9067 57.2229 10.8607L62.2726 5.84068C62.5101 6.37331 62.6238 6.95231 62.6052 7.53463C62.6071 9.50714 61.6637 10.9284 58.3785 10.9284V10.9274Z" fill="white"/>
</svg>
